<svg width="1238" height="924" viewBox="0 0 1238 924" fill="none" xmlns="http://www.w3.org/2000/svg">
<path d="M1179.19 0H58.8124C26.3312 0 0 26.3312 0 58.8124V865.101C0 897.582 26.3312 923.913 58.8124 923.913H1179.19C1211.67 923.913 1238 897.582 1238 865.101V58.8124C1238 26.3312 1211.67 0 1179.19 0Z" fill="#F2F6FB"/>
<mask id="mask0" mask-type="alpha" maskUnits="userSpaceOnUse" x="21" y="147" width="1196" height="767">
<path d="M21.4682 147.161H1216.53V901.25C1216.53 907.746 1211.27 913.011 1204.75 913.011H33.2479C26.7422 913.011 21.4682 907.764 21.4682 901.25V147.161Z" fill="white"/>
</mask>
<g mask="url(#mask0)">
<path d="M21.4682 147.161H1216.53V901.25C1216.53 907.746 1211.27 913.011 1204.75 913.011H33.2479C26.7422 913.011 21.4682 907.764 21.4682 901.25V147.161Z" fill="#F2F6FB"/>
<path d="M682.012 914.163V979.342H742.852V1014.1H495.148V979.342H555.987V914.163H272.254C265.752 914.163 260.481 908.922 260.481 902.397V827.258H977.519V902.397C977.519 908.895 972.26 914.163 965.745 914.163H682.012Z" fill="#D8DEED"/>
<path fill-rule="evenodd" clip-rule="evenodd" d="M260.481 434.907C260.481 428.413 265.739 423.149 272.254 423.149H965.745C972.248 423.149 977.519 428.424 977.519 434.907V840.294H260.481V434.907Z" fill="white"/>
<path d="M625.664 676.164L621.004 676.226L621.042 676.164H560.112C557.511 676.164 556.503 674.376 557.881 672.137L600.278 603.264C601.647 601.04 603.901 600.988 605.326 603.174L636.38 651.197L647.63 632.885C648.986 630.678 651.275 630.639 652.73 632.777L678.782 671.057C680.243 673.204 679.315 675.01 676.72 675.091L654.871 675.776L651.505 675.821L651.709 676.164C651.709 676.164 649.608 676.164 646.999 676.164H625.664ZM651.103 612.541C645.417 612.541 640.807 607.837 640.807 602.035C640.807 596.232 645.417 591.528 651.103 591.528C656.79 591.528 661.399 596.232 661.399 602.035C661.399 607.837 656.79 612.541 651.103 612.541Z" fill="#D8DEED"/>
</g>
<path d="M750.238 298.989H490.096C486.847 298.989 484.214 301.622 484.214 304.87V336.426C484.214 339.674 486.847 342.307 490.096 342.307H750.238C753.486 342.307 756.119 339.674 756.119 336.426V304.87C756.119 301.622 753.486 298.989 750.238 298.989Z" fill="#D8DEED"/>
<path d="M886.19 228.597H354.143C350.895 228.597 348.262 231.23 348.262 234.478V266.034C348.262 269.282 350.895 271.915 354.143 271.915H886.19C889.438 271.915 892.071 269.282 892.071 266.034V234.478C892.071 231.23 889.438 228.597 886.19 228.597Z" fill="#D8DEED"/>
<path d="M0 52.3868C0 23.4544 23.4548 0 52.4046 0H1185.6C1214.54 0 1238 23.448 1238 52.3868V104.774H0V52.3868Z" fill="#E1E5F0"/>
<path d="M70.368 76.199C82.8833 76.199 93.0289 66.071 93.0289 53.5774C93.0289 41.0838 82.8833 30.9558 70.368 30.9558C57.8528 30.9558 47.7072 41.0838 47.7072 53.5774C47.7072 66.071 57.8528 76.199 70.368 76.199Z" fill="#FF5645"/>
<path d="M144.314 76.199C156.829 76.199 166.975 66.071 166.975 53.5774C166.975 41.0838 156.829 30.9558 144.314 30.9558C131.799 30.9558 121.653 41.0838 121.653 53.5774C121.653 66.071 131.799 76.199 144.314 76.199Z" fill="#FFCB3D"/>
<path d="M220.646 76.199C233.161 76.199 243.306 66.071 243.306 53.5774C243.306 41.0838 233.161 30.9558 220.646 30.9558C208.13 30.9558 197.985 41.0838 197.985 53.5774C197.985 66.071 208.13 76.199 220.646 76.199Z" fill="#3ABF7C"/>
<path d="M498 671H208C196.954 671 188 679.954 188 691V904C188 915.046 196.954 924 208 924H498C509.046 924 518 915.046 518 904V691C518 679.954 509.046 671 498 671Z" fill="#E1E5F0"/>
<path d="M375.245 854.146V863.804C375.245 864.8 375.142 865.162 374.947 865.526C374.752 865.89 374.466 866.176 374.102 866.371C373.738 866.565 373.377 866.669 372.381 866.669H260.662V851.281H372.381C373.377 851.281 373.738 851.385 374.102 851.58C374.466 851.775 374.752 852.06 374.947 852.425C375.142 852.789 375.245 853.15 375.245 854.146Z" fill="#D8DEED"/>
<path d="M488.947 823.371V833.029C488.947 834.025 488.844 834.386 488.649 834.751C488.454 835.115 488.168 835.401 487.804 835.595C487.44 835.79 487.079 835.894 486.083 835.894H260.662V820.506H486.083C487.079 820.506 487.44 820.61 487.804 820.805C488.168 820.999 488.454 821.285 488.649 821.649C488.844 822.014 488.947 822.375 488.947 823.371Z" fill="#F2F6FB"/>
<path d="M458.979 792.596V802.254C458.979 803.25 458.876 803.611 458.681 803.975C458.486 804.34 458.2 804.625 457.836 804.82C457.472 805.015 457.111 805.119 456.115 805.119H260.662V789.731H456.115C457.111 789.731 457.472 789.835 457.836 790.029C458.2 790.224 458.486 790.51 458.681 790.874C458.876 791.238 458.979 791.599 458.979 792.596Z" fill="#D8DEED"/>
<path d="M391.111 761.82V771.479C391.111 772.475 391.007 772.836 390.812 773.2C390.618 773.564 390.332 773.85 389.968 774.045C389.603 774.24 389.242 774.343 388.246 774.343H260.662V758.956H388.246C389.242 758.956 389.603 759.059 389.968 759.254C390.332 759.449 390.618 759.735 390.812 760.099C391.007 760.463 391.111 760.824 391.111 761.82Z" fill="#D8DEED"/>
<path d="M424.604 731.045V740.703C424.604 741.7 424.501 742.061 424.306 742.425C424.111 742.789 423.825 743.075 423.461 743.27C423.097 743.464 422.736 743.568 421.74 743.568H260.662V728.18H421.74C422.736 728.18 423.097 728.284 423.461 728.479C423.825 728.674 424.111 728.96 424.306 729.324C424.501 729.688 424.604 730.049 424.604 731.045Z" fill="#D8DEED"/>
<path d="M514.471 136.035H180C168.954 136.035 160 144.99 160 156.035V402.035C160 413.081 168.954 422.035 180 422.035H514.471C525.517 422.035 534.471 413.081 534.471 402.035V156.035C534.471 144.99 525.517 136.035 514.471 136.035Z" fill="#F2F6FB"/>
<path d="M353.307 360.328C395.206 336.138 409.557 282.553 385.36 240.643C361.164 198.733 307.582 184.369 265.683 208.559C223.784 232.75 209.434 286.335 233.63 328.244C257.827 370.154 311.408 384.519 353.307 360.328ZM331.869 323.196C310.472 335.55 283.109 328.214 270.753 306.812C258.396 285.409 265.724 258.045 287.121 245.691C308.518 233.338 335.881 240.673 348.238 262.076C360.595 283.478 353.266 310.843 331.869 323.196Z" fill="#E1E5F0"/>
<mask id="mask1" mask-type="alpha" maskUnits="userSpaceOnUse" x="161" y="136" width="296" height="296">
<path d="M254.851 190.149C203.053 220.055 185.311 286.3 215.225 338.111C245.138 389.923 311.379 407.681 363.177 377.776C414.975 347.87 432.716 281.625 402.803 229.813L365.931 251.101C384.085 282.544 373.318 322.745 341.884 340.894C310.449 359.043 270.25 348.266 252.097 316.824C233.943 285.381 244.71 245.179 276.144 227.03L254.851 190.149Z" fill="white"/>
</mask>
<g mask="url(#mask1)">
<path d="M254.851 190.149C203.053 220.055 185.311 286.3 215.225 338.111C245.138 389.923 311.379 407.681 363.177 377.776C414.975 347.87 432.716 281.625 402.803 229.813L365.931 251.101C384.085 282.544 373.318 322.745 341.884 340.894C310.449 359.043 270.25 348.266 252.097 316.824C233.943 285.381 244.71 245.179 276.144 227.03L254.851 190.149Z" fill="white"/>
<path d="M256.709 189.909C199.304 209.431 180.361 288.88 210.275 340.692C240.188 392.503 331.262 410.582 365.035 377.535L343.996 338.291C312.422 356.521 271.856 348.172 253.702 316.729C235.549 285.286 246.428 245.019 278.003 226.79L256.709 189.909Z" fill="#474BFF"/>
</g>
<path d="M473.615 235.204H450.394C449.29 235.204 448.394 236.1 448.394 237.204V260.096C448.394 261.201 449.29 262.096 450.394 262.096H473.615C474.72 262.096 475.615 261.201 475.615 260.096V237.204C475.615 236.1 474.72 235.204 473.615 235.204Z" fill="#474BFF"/>
<path d="M473.615 274.582H450.394C449.29 274.582 448.394 275.477 448.394 276.582V299.473C448.394 300.578 449.29 301.473 450.394 301.473H473.615C474.72 301.473 475.615 300.578 475.615 299.473V276.582C475.615 275.477 474.72 274.582 473.615 274.582Z" fill="white"/>
<path d="M473.615 313.959H450.394C449.29 313.959 448.394 314.854 448.394 315.959V338.851C448.394 339.955 449.29 340.851 450.394 340.851H473.615C474.72 340.851 475.615 339.955 475.615 338.851V315.959C475.615 314.854 474.72 313.959 473.615 313.959Z" fill="#E1E5F0"/>
<path d="M864 88.2103C864 79.2772 871.242 72.0355 880.177 72.0355H1220.82C1229.76 72.0355 1237 79.2752 1237 88.2103V104.385H864V88.2103Z" fill="#E1E5F0"/>
<path d="M614.462 708.503C629.899 696.48 647.118 690.302 666.119 689.971C696.574 689.439 699.39 699.051 694.062 717.83C693.986 718.098 693.899 718.359 693.801 718.613C693.986 718.737 694.17 718.862 694.353 718.989C696.353 720.389 699.353 722.589 702.453 725.789C705.153 728.489 710.272 729.973 716.672 754.873C718.972 763.673 721.753 785.648 731.553 800.489C741.353 815.33 746.819 831.955 731.553 842.965C719.633 851.563 709.072 852.472 690.016 855.506C691.66 872.934 691.495 887.498 689.853 897.572C691.566 904.905 692.123 909.272 691.523 910.672C658.41 911.472 638.687 911.972 632.353 912.172C616.753 912.672 574.043 916.656 534.272 913.774C524.272 904.274 524.753 872.072 524.753 872.072C524.931 867.026 525.108 862.177 525.284 857.519C499.122 850.791 484.779 844.417 482.253 838.396C478.23 828.803 485.653 808.789 487.453 803.589C490.953 793.689 498.723 776.245 500.561 767.274C506.254 739.493 513.853 731.589 516.553 728.889C519.653 725.689 532.609 714.514 552.272 711.741C558.363 710.882 572.656 709.698 595.151 708.188C595.382 708.178 595.479 708.443 595.44 708.982C601.706 708.53 608.093 708.151 614.462 708.503Z" fill="#FF5645"/>
<path opacity="0.176986" d="M614.482 709.143C629.993 696.972 647.308 690.72 666.427 690.386C696.881 689.854 699.698 699.467 694.37 718.245C694.27 718.599 694.15 718.941 694.011 719.271C680.671 710.301 666.653 708.935 659.451 708.738C659.251 708.638 659.051 708.638 658.851 708.638L623.351 708.138C619.256 707.964 619.715 707.79 621.62 709.863C619.248 709.498 616.866 709.27 614.482 709.143ZM564.032 823.953C564.159 819.629 567.702 816.189 572.029 816.189H618.189C618.227 816.189 618.264 816.189 618.302 816.19C622.72 816.252 626.251 819.884 626.188 824.302C626.088 831.42 627.289 836.832 629.792 840.539C632.521 844.579 636.674 847.451 642.252 849.156C644.775 849.928 646.498 852.256 646.498 854.894V884.199L538.222 888.01L539.192 856.439C539.269 853.936 540.892 851.744 543.264 850.94C552.055 847.962 557.732 844.609 560.294 840.883C562.55 837.602 563.796 831.959 564.032 823.953Z" fill="#444444"/>
<path d="M630.714 674.118L623.763 716.146C623.63 716.833 623.202 717.463 622.555 717.643C619.698 718.717 615.722 719.778 611.016 719.882C602.506 720.164 595.804 717.435 592.106 715.493C591.359 715.144 590.923 714.245 591.075 713.459L594.02 696.298C588.554 697.202 588.875 697.067 588.339 697.137C581.85 697.506 576.587 696.279 575.644 695.892C572.167 694.911 569.009 691.241 566.645 685.586C563.427 678.033 561.425 666.845 561.689 653.959C561.639 652.116 561.885 650.33 562.13 648.544L565.153 630.896C565.818 626.951 567.544 623.313 570.115 620.043C571.205 618.626 572.239 617.502 573.43 616.613C586.431 605.286 604.7 610.874 607.942 612.014C608.316 612.188 608.708 612.265 609.082 612.439C612.523 614.127 615.901 615.089 619.318 615.855C622.735 616.621 643.633 655.219 643.625 657.356C643.66 660.108 637.557 666.981 630.714 674.118ZM484.828 892.632L489.553 855.989L491.097 845.886L525.418 857.365L524.857 875.708C537.983 873.892 554.176 873.705 572.521 877.365C572.894 877.439 573.261 877.515 573.622 877.591C603.816 871.082 644.602 862.782 671.863 859.186L658.794 810.489C661.177 817.523 662.744 821.921 663.013 821.962C664.313 822.162 671.213 858.95 672.013 858.751C703.513 852.35 716.547 853.948 731.813 842.938C734.015 841.35 735.786 839.644 737.174 837.844C743.706 868.424 746.817 909.288 704.801 916.76L541.755 914.501L475.258 920.66C474.704 909.901 479.208 899.875 484.828 892.632Z" fill="#DB9E75"/>
<path d="M673.715 856.957C673.941 857.754 673.477 858.583 672.68 858.808C671.883 859.034 671.054 858.57 670.829 857.773C667.135 844.716 655.349 805.169 652.852 797.849C652.585 797.065 653.004 796.213 653.788 795.945C654.572 795.678 655.424 796.097 655.692 796.881C658.211 804.267 670.007 843.849 673.715 856.957ZM526.907 857.553C526.803 858.375 526.052 858.957 525.23 858.853C524.409 858.749 523.826 857.999 523.93 857.177L531.065 800.677C531.169 799.855 531.919 799.273 532.741 799.376C533.563 799.48 534.145 800.231 534.041 801.052L526.907 857.553Z" fill="#482D1F"/>
<path d="M594.026 696.258L601.547 694.804L592.309 706.291L594.026 696.258Z" fill="#482D1F"/>
<path d="M620.561 670.937L620.892 671.172C623.573 671.353 625.377 671.33 626.305 671.103C627.695 670.762 631.769 669.72 634.768 665.821C637.767 661.922 639.187 656.187 636.826 651.042C634.543 646.014 629.13 642.415 624.113 643.07C621.291 643.438 619.124 645.156 618.889 645.314C618.152 645.945 617.516 646.605 616.973 647.25L564.514 633.711C566.258 622.241 571.98 614.753 581.681 611.249C584.438 610.252 591.961 608.79 598.491 609.637C608.571 610.945 617.651 614.407 620.373 615.143C622.593 615.778 640.37 616.595 650.437 624.336C651.519 625.26 654.042 627.584 655.805 631.492C661.338 643.366 657.053 655.675 655.612 658.451C655.119 659.401 650.229 668.748 643.597 676.827C636.675 685.258 628.009 692.415 628.009 692.415C622.701 691.105 620.218 683.946 620.561 670.937ZM566.242 643.638C565.298 643.251 565.252 641.917 566.072 641.364C567.109 640.75 568.832 640.27 570.795 640.652C574.82 641.434 578.624 644.924 573.879 645.224C571.076 645.495 568.011 644.491 566.242 643.638ZM586.33 648.256C585.386 647.869 585.34 646.535 586.259 646.001C587.295 645.387 589.018 644.907 591.079 645.308C595.104 646.09 598.889 649.678 594.164 649.88C591.145 650.211 588.217 649.03 586.33 648.256Z" fill="#482D1F"/>
<path d="M572.544 652.096C572.121 653.745 571.292 656.437 570.12 657.228C568.165 658.376 566.959 653.048 568.827 650.253C569.566 649.072 570.291 649.009 571.057 649.26C572.197 649.685 572.773 650.918 572.544 652.096ZM590.172 655.217C589.946 656.905 589.411 659.653 588.201 660.64C586.404 662.023 584.571 656.777 586.164 653.826C586.804 652.627 587.549 652.466 588.334 652.618C589.512 652.847 590.303 654.02 590.172 655.217Z" fill="#482D1F"/>
<path d="M578.192 673.874C578.917 673.811 580.681 673.644 581.186 672.622C581.224 672.426 581.379 672.15 581.319 671.935C581.06 671.171 579.806 671.335 578.02 671.09C574.841 670.675 572.346 669.885 572.346 669.885C572.346 669.885 572.651 671.982 573.027 672.666C573.821 674.348 577.153 673.977 578.192 673.874Z" fill="#482D1F"/>
<path d="M571.874 662.929C571.474 664 572.121 665.254 573.204 665.658C573.444 665.728 573.444 665.728 573.601 665.771C575.232 666.22 576.258 666.469 578.036 666.815C578.578 666.92 579.103 666.566 579.208 666.024C579.314 665.482 578.96 664.957 578.418 664.851C576.696 664.517 575.717 664.279 574.132 663.843L573.819 663.757C573.817 663.752 573.75 663.622 573.757 663.603L577.279 653.362L577.315 653.227L578.441 647.436C578.547 646.894 578.192 646.369 577.65 646.263C577.108 646.158 576.583 646.512 576.478 647.054L575.365 652.777L571.874 662.929Z" fill="#482D1F"/>
<path opacity="0.2" d="M484.972 892.548C491.216 887.504 498.209 883.63 505.952 880.926C513.696 878.223 519.961 876.491 524.75 875.731L525.418 857.365L491.097 845.886L484.972 892.548Z" fill="#8C2A00"/>
<path d="M1136.92 832.764L1166.48 823.492C1168.51 821.002 1185.81 787.559 1150.83 771.151C1148.35 766.752 1145.63 762.49 1142.67 758.387C1133.67 745.787 1126.27 735.587 1113.07 729.487C1108.11 727.211 1103.12 725.897 1098.31 725.247C1091.64 722.73 1084.34 721.541 1076.77 721.987L1053.77 723.387C1024.57 724.987 1002.47 749.787 1004.27 778.687L1004.37 780.487L1007.27 834.633L1009.83 886.529L1011.27 896.487C1011.27 897.287 1011.37 897.987 1011.47 898.787C1011.57 899.687 1011.67 900.487 1011.77 901.387C1012.07 903.687 1018.77 918.887 1019.17 919.787L1145.07 919.987L1136.92 832.764Z" fill="#FFCB3D"/>
<path d="M1078.08 684.833L1076.55 696.572L1075.92 705.55L1074.73 722.571L1053.6 723.857C1050.59 724.022 1047.65 724.434 1044.81 725.073L1045.9 710.208C1045.48 710.276 1045.05 710.344 1044.61 710.413C1035.68 711.894 1036.2 711.729 1035.59 711.787C1029.05 712.132 1023.83 710.864 1022.85 710.495C1014.8 708.128 1008.47 691.045 1008.94 668.523C1008.97 666.72 1009.2 664.932 1009.42 663.143L1012.46 645.512C1013.14 641.55 1014.8 637.857 1017.32 634.825C1018.41 633.498 1019.49 632.371 1020.66 631.45C1033.68 620.131 1051.94 625.718 1055.16 626.846C1055.56 626.973 1055.95 627.101 1056.34 627.229C1059.83 628.876 1063.17 629.911 1066.63 630.654C1068.21 630.966 1069.2 632.539 1068.89 634.121L1063.93 659.236C1063.46 661.609 1082.83 651.432 1083.17 672.209C1083.96 677.319 1081.5 682.021 1078.08 684.833ZM1009.54 871.172C1011.81 870.793 1014.37 870.378 1017.27 869.922C1049.06 864.957 1075.91 861.202 1098.3 858.175C1098.29 858.172 1098.28 858.168 1098.28 858.165C1097.3 856.396 1095.1 851.747 1092.33 845.787C1093.01 845.821 1093.72 845.845 1094.43 845.859L1165.58 823.545C1166.21 825.226 1166.84 826.933 1167.48 828.665C1179.33 861.002 1185.83 878.378 1184.42 890.492C1184.51 890.505 1184.59 890.517 1184.67 890.526C1184.58 890.603 1184.48 890.835 1184.33 891.204C1184.27 891.618 1184.2 892.026 1184.12 892.428C1184.05 892.397 1183.97 892.366 1183.89 892.335C1182.28 896.421 1177.57 906.683 1161.07 916.63C1147.28 924.94 1086.48 926.058 978.666 919.987C978.559 919.905 978.453 919.824 978.347 919.743C966.899 918.832 954.394 916.426 940.832 912.525C944.656 913.635 948.407 914.627 952.087 915.502L899.496 908.56C890.592 906.224 865.389 899.375 846.318 894.251C840.196 892.658 834.153 891.084 828.796 889.685C817.696 886.785 809.496 884.585 809.496 884.585C810.096 872.585 829.096 875.585 837.596 877.585C847.996 878.085 858.396 878.685 868.896 879.185C870.515 878.761 872.431 878.293 874.586 877.894C866.805 872.529 875.642 868.222 901.098 864.975C914.316 863.289 924.387 865.051 934.653 867.949L989.347 857.8L989.266 857.727L1005.93 810.365L1007.5 836.897L1007.6 837.897L1009.54 871.172Z" fill="#F2A98A"/>
<path d="M1077.57 684.915C1074.93 686.835 1072.08 687.438 1070.26 687.611C1069.15 687.734 1068.1 688.463 1067.73 689.439L1061.02 706.513C1061.02 706.513 1060.71 706.691 1059.99 706.842C1058.25 707.422 1053.96 708.625 1044.63 710.078C1035.71 711.559 1036.22 711.395 1035.61 711.453C1029.07 711.797 1023.85 710.53 1022.87 710.161C1014.82 707.793 1008.49 690.71 1008.97 668.188C1008.99 666.386 1009.22 664.597 1009.44 662.809L1012.48 645.178C1013.16 641.215 1014.82 637.522 1017.34 634.49C1018.43 633.164 1019.51 632.036 1020.68 631.115C1033.7 619.796 1051.96 625.383 1055.19 626.511C1055.58 626.639 1055.97 626.766 1056.36 626.894C1059.86 628.542 1063.19 629.577 1066.65 630.32C1068.23 630.631 1069.22 632.204 1068.91 633.786L1063.95 658.901C1063.48 661.274 1082.86 651.097 1083.19 671.875C1084.02 677.246 1081.27 682.166 1077.57 684.915Z" fill="#F2A98A"/>
<path d="M1045.06 718.158L1056.6 707.397L1045.06 709.969L1045.06 718.158Z" fill="#482D1F"/>
<path d="M1009.64 683.082C1006.38 687.217 1004.62 691.328 1005.65 694.776C1006.97 699.136 1011.1 701.209 1015.33 703.296C1015.37 703.313 1015.4 703.33 1015.44 703.348C1012.73 698.487 1010.66 691.485 1009.64 683.082ZM1067.67 686.891C1066.26 692.06 1063.97 698.837 1060.8 707.223C1073 712.354 1082.55 712.354 1089.46 707.223C1092.31 705.117 1098.41 683.565 1102.38 672.716C1103.63 669.094 1108 656.869 1101.97 645.621C1099.84 641.663 1097 639.259 1095.77 638.27C1089.02 632.887 1082.86 633.559 1068.07 630.019C1065.02 629.304 1060.48 628.185 1055.09 626.404C1054.69 626.376 1054.3 626.249 1053.91 626.121C1050.68 624.993 1032.78 620.187 1020.49 631.156C1019.73 631.858 1019.18 632.393 1018.86 632.761C1021.39 634.83 1023.5 636.224 1025.19 636.944C1032.29 639.947 1038.9 640.108 1043.03 639.795C1043.65 642.345 1044.65 645.322 1046.14 648.333C1050.33 657.051 1056.98 662.44 1061.13 665.288C1062.03 664.393 1064.13 662.504 1066.89 661.212C1067.21 661.034 1069.58 660.097 1072.26 660.485C1077.03 661.119 1081.1 665.915 1081.84 671.079C1082.67 676.45 1080.02 681.377 1076.32 684.126C1072.98 686.603 1069.31 686.858 1067.67 686.891Z" fill="#482D1F"/>
<path d="M1109.93 866.415C1110.66 866.811 1111.57 866.544 1111.97 865.817C1112.36 865.089 1112.1 864.178 1111.37 863.781L1098.87 856.959C1098.14 856.562 1097.23 856.83 1096.83 857.557C1096.44 858.285 1096.7 859.196 1097.43 859.593L1109.93 866.415ZM1075.95 804.712C1076.25 803.94 1075.87 803.071 1075.1 802.77C1074.32 802.47 1073.45 802.852 1073.15 803.625C1072.91 804.256 1072.74 804.717 1072.49 805.488C1072.11 806.673 1071.76 807.967 1071.45 809.364C1069.5 818.428 1070.43 827.548 1075.92 835.492C1080.44 842.013 1086.48 845.73 1092.72 847.705C1093.51 847.955 1094.35 847.517 1094.6 846.727C1094.85 845.937 1094.41 845.094 1093.62 844.844C1087.96 843.052 1082.47 839.671 1078.39 833.785C1073.44 826.625 1072.6 818.323 1074.39 809.995C1074.67 808.701 1074.99 807.503 1075.35 806.41C1075.57 805.706 1075.72 805.294 1075.95 804.712Z" fill="#482D1F"/>
<path opacity="0.2" d="M1009.06 871.353L1007.11 837.897L1007.01 836.897L1005.43 810.365L988.769 857.727L988.85 857.8L933.895 867.998C937.572 869.026 941.269 870.204 945.139 871.425C950.455 873.103 957.641 875.921 966.699 879.881C975.718 877.916 981.758 876.726 986.152 876.109C992.639 875.197 989.022 874.715 1009.06 871.353H1009.06ZM874.14 877.885C871.964 878.286 870.031 878.758 868.4 879.185C857.9 878.685 847.5 878.085 837.1 877.585C828.6 875.585 809.6 872.585 809 884.585C809 884.585 817.2 886.785 828.3 889.685C833.656 891.084 839.699 892.658 845.822 894.251C864.893 899.375 890.096 906.224 899 908.56L951.59 915.502C947.911 914.627 944.159 913.635 940.336 912.525C925.467 908.21 907.116 898.318 885.284 882.848C880.115 881.104 876.401 879.45 874.14 877.885Z" fill="#8C2A00"/>
<path d="M918.563 903.089C908.896 898.09 898.264 891.498 886.67 883.315L779.896 854.545C776.896 853.745 773.696 855.545 772.896 858.645C772.096 861.745 773.896 864.845 776.996 865.645L915.796 903.045C916.74 903.288 917.684 903.291 918.563 903.089V903.089Z" fill="#474961"/>
<path d="M1015.9 663.91C1015.71 665.792 1015.5 668.84 1014.39 669.993C1012.59 671.852 1010.03 666.184 1011.39 662.844C1012 661.48 1012.85 661.021 1013.67 661.196C1015.04 661.378 1015.97 662.538 1015.9 663.91ZM1037.83 666.527C1037.65 668.409 1037.43 671.458 1036.32 672.61C1034.53 674.47 1031.97 668.802 1033.32 665.462C1033.93 664.098 1034.79 663.639 1035.61 663.814C1036.97 663.996 1037.91 665.156 1037.83 666.527Z" fill="#482D1F"/>
<path d="M1020.84 665.682L1017.94 674.979C1017.68 676.176 1018.36 677.473 1019.5 677.716C1020.16 677.913 1020.6 678.006 1022.35 678.343C1023.13 678.494 1023.66 678.601 1024.29 678.735C1024.83 678.85 1025.36 678.505 1025.48 677.965C1025.59 677.425 1025.25 676.894 1024.71 676.779C1024.06 676.642 1023.52 676.533 1022.73 676.38C1021.05 676.055 1020.64 675.969 1019.99 675.778C1019.94 675.766 1019.85 675.586 1019.87 675.485L1022.74 666.277C1022.91 665.749 1022.61 665.189 1022.09 665.024C1021.56 664.86 1021 665.155 1020.84 665.682Z" fill="#482D1F"/>
<path d="M1024.48 684.949C1025.18 684.873 1026.93 684.461 1027.34 683.431C1027.39 683.217 1027.55 682.916 1027.48 682.789C1027.22 682.175 1025.91 682.345 1024.17 682.309C1021.07 682.21 1018.56 681.675 1018.56 681.675C1018.56 681.675 1019.01 683.673 1019.36 684.307C1020.11 685.809 1023.37 685.159 1024.48 684.949Z" fill="#482D1F"/>
<path d="M1025.84 664.253C1027.46 656.707 1034.88 651.894 1042.44 653.499C1048 654.682 1052.08 659.019 1053.21 664.24L1053.26 664.726L1053.21 664.24C1053.25 664.397 1053.28 664.555 1053.31 664.713L1061.08 662.426C1061.87 662.192 1062.71 662.647 1062.94 663.441C1063.17 664.236 1062.72 665.07 1061.92 665.304L1053.79 667.697C1053.7 667.724 1053.61 667.742 1053.52 667.751C1053.48 668.53 1053.39 669.316 1053.22 670.104C1051.61 677.667 1044.18 682.495 1036.61 680.888C1030.17 679.519 1025.72 673.923 1025.53 667.622C1025.54 667.49 1025.55 667.363 1025.56 667.241L1022.15 666.988L1022.08 667.381C1020.14 674.488 1012.96 678.928 1005.67 677.377C998.105 675.769 993.277 668.335 994.884 660.772C996.492 653.209 1003.93 648.381 1011.49 649.989C1018.19 651.412 1022.74 657.406 1022.58 664.011L1025.84 664.253V664.253ZM1037.24 677.953C1043.18 679.216 1049.02 675.423 1050.28 669.481C1051.55 663.538 1047.75 657.697 1041.81 656.434C1035.87 655.171 1030.03 658.964 1028.77 664.907C1027.5 670.849 1031.3 676.69 1037.24 677.953ZM1006.29 674.442C1012.23 675.705 1018.08 671.912 1019.34 665.97C1020.6 660.027 1016.81 654.186 1010.87 652.923C1004.92 651.66 999.082 655.453 997.819 661.396C996.556 667.338 1000.35 673.179 1006.29 674.442Z" fill="#482D1F"/>
<path d="M1171 908.365H398C394.134 908.365 391 911.499 391 915.365C391 919.231 394.134 922.365 398 922.365H1171C1174.87 922.365 1178 919.231 1178 915.365C1178 911.499 1174.87 908.365 1171 908.365Z" fill="#D8DEED"/>
<path d="M86.2368 574.607C86.2368 574.607 116.537 639.207 101.337 642.307C101.337 642.307 92.2368 637.407 85.6368 621.807" fill="#482D1F"/>
<path d="M122.617 620.787L112.717 684.487C112.217 687.187 114.117 689.687 116.817 690.187L126.117 691.687C128.817 692.187 131.317 690.287 131.817 687.587L141.717 623.887C142.217 621.187 140.317 618.687 137.617 618.187L128.317 616.687C125.617 616.187 123.117 618.087 122.617 620.787Z" fill="#3ABF7C"/>
<path d="M177.899 344.723C184.996 341.861 195.836 339.646 206.948 345.865C216.412 351.055 214.334 358.182 230.622 374.372C238.698 382.378 245.771 387.319 245.266 393.631C244.953 397.258 242.389 399.794 240.361 401.41C231.215 405.072 222.048 408.719 212.87 412.365L213.228 443.133L213.245 444.067L213.847 461.236L213.848 467.146C213.848 486.618 198.756 502.758 179.328 504.064L115.522 508.351C102.297 509.24 90.8555 499.239 89.9669 486.014C89.9329 485.509 89.915 485.003 89.9131 484.497L89.6987 428.469C79.3619 429.169 69.0255 429.866 58.6905 430.551C55.4394 429.95 51.1697 428.62 49.2769 425.164C45.9021 419.006 52.6686 410.669 59.402 398.499C72.8687 374.159 67.2737 368.031 76.8646 358.025C90.1557 344.142 107.814 342.28 117.576 342.37C119.796 342.34 122.067 342.72 124.214 343.286L124.462 343.415C129.107 342.001 134.042 341.222 139.157 341.184L161.336 341.077C167.095 341.015 172.671 342.341 177.899 344.723Z" fill="#3ABF7C"/>
<path d="M143.817 323.851L139.02 306.354C138.656 305.311 134.767 303.846 132.585 302.122C128.706 298.967 127.829 293.621 128.56 288.285C129.654 283.168 134.169 278.539 139.02 278.154C140.839 278.01 142.585 278.399 144.33 279.2L144.452 279.273C145.058 279.637 145.785 279.662 146.392 279.614C148.065 279.3 149.255 277.869 149.037 276.171L145.464 250.266C145.15 248.593 146.242 247.187 147.916 246.872C151.579 246.268 155.072 245.397 158.541 244.017C159.026 243.896 159.414 243.799 159.802 243.703C163.271 242.735 182.119 238.139 194.772 250.443C195.911 251.705 197.026 252.87 197.971 254.18C200.321 257.407 201.798 261.265 202.305 265.364L204.355 283.507C204.5 285.326 204.547 287.169 204.497 289.037C203.634 312.028 196.25 329.123 187.881 331.106C183.564 331.976 179.101 332.265 174.735 331.704C174.146 331.573 174.54 331.698 168.01 330.283L167.925 340.544C178.814 342.642 183.23 346.672 183.23 346.672C182.813 349.308 181.841 351.18 180.635 352.568C173.219 361.206 150.861 356.855 124.934 343.03C130.567 341.708 135.722 340.792 140.428 340.2C141.558 334.761 142.714 329.868 143.817 323.851ZM213.584 468.636C213.611 468.062 213.624 467.486 213.624 466.906L213.624 460.996L213.021 443.826L213.005 442.893L212.644 411.853C222.069 408.109 231.483 404.364 240.875 400.604C241.393 400.191 241.947 399.717 242.489 399.181L267.739 432.515C274.357 427.018 305.294 403.523 324.634 388.885C351.274 365.056 402.682 319.553 402.682 319.553C409.197 324.297 404.558 339.057 396.781 354.996C400.071 357.162 403.601 361.409 407.373 367.738C411.082 373.961 409.813 381.945 404.358 386.712L373.762 413.447C342.959 450.15 289.656 503.966 274.23 509.348C257.579 515.155 235.977 497.611 213.584 468.636ZM60.3968 430.021C83.0397 428.518 105.689 426.961 128.335 425.433L86.7091 601.081C86.6866 601.082 86.6641 601.084 86.6416 601.085L105.13 677.818C105.569 679.639 104.686 681.52 103.005 682.345C97.2461 685.175 89.8233 686.537 80.7368 686.434C64.7564 686.251 53.7368 680.141 53.7368 680.051C41.5035 652.929 34.5545 631.897 32.8897 616.956C32.6633 614.924 32.6439 612.678 32.8316 610.22C32.7668 610.197 32.7019 610.174 32.6368 610.151L60.3968 430.021Z" fill="#BF865F"/>
<path opacity="0.176986" d="M176.729 345.329C183.628 342.221 194.928 339.137 206.948 345.865C216.412 351.055 214.334 358.182 230.622 374.372C238.698 382.378 245.335 387.027 245.335 393.361C245.335 396.908 243.065 399.169 240.875 400.604C231.481 404.365 222.059 408.13 212.644 411.78L211.976 391.697C212.046 379.607 208.607 368.696 201.658 358.962C196.287 351.439 187.978 346.895 176.729 345.329Z" fill="#444444"/>
<path opacity="0.2" d="M213.584 468.636C213.611 468.062 213.624 467.486 213.624 466.906L213.624 460.996L213.021 443.826L213.005 442.893L212.644 411.853C222.069 408.109 231.483 404.364 240.875 400.604C241.393 400.191 241.947 399.717 242.489 399.181L267.739 432.515C274.357 427.018 305.294 403.523 324.634 388.885C351.274 365.056 402.682 319.553 402.682 319.553C409.197 324.297 404.558 339.057 396.781 354.996C400.071 357.162 403.601 361.409 407.373 367.738C411.082 373.961 409.813 381.945 404.358 386.712L373.762 413.447C342.959 450.15 289.656 503.966 274.23 509.348C257.579 515.155 235.978 497.611 213.584 468.636Z" fill="#8C2A00"/>
<path d="M79.2687 649.908C79.0819 649.101 79.5848 648.296 80.3919 648.109C81.199 647.922 82.0047 648.425 82.1914 649.232C83.35 654.239 84.4146 658.12 86.9159 666.766C89.432 675.464 90.5065 679.381 91.6813 684.457C91.868 685.265 91.3651 686.07 90.558 686.257C89.7509 686.444 88.9453 685.941 88.7585 685.134C87.5999 680.127 86.5353 676.246 84.034 667.6C81.5179 658.902 80.4434 654.985 79.2687 649.908ZM58.8924 646.398C58.656 645.604 59.1081 644.769 59.902 644.532C60.696 644.296 61.5313 644.748 61.7677 645.542C63.3986 651.02 64.5286 655.168 66.9384 664.319C69.3403 673.439 70.4642 677.565 72.0833 683.003C72.3197 683.797 71.8676 684.633 71.0736 684.869C70.2797 685.105 69.4444 684.653 69.208 683.859C67.577 678.381 66.4471 674.233 64.0373 665.083C61.6354 655.962 60.5115 651.836 58.8924 646.398ZM126.137 426.358C126.154 425.531 126.837 424.873 127.664 424.888C127.731 424.889 127.849 424.886 128.011 424.875C128.278 424.858 128.575 424.825 128.892 424.773C129.774 424.629 130.649 424.365 131.453 423.959C134.086 422.63 135.486 420.089 135.044 415.637C134.698 412.175 134.202 409.155 133.596 406.554C133.168 404.721 132.713 403.209 132.263 402C132.002 401.301 131.808 400.871 131.713 400.694C131.323 399.963 131.6 399.054 132.331 398.664C133.062 398.274 133.971 398.551 134.36 399.282C134.518 399.577 134.766 400.128 135.073 400.952C135.569 402.281 136.061 403.916 136.517 405.873C137.153 408.601 137.671 411.749 138.03 415.34C138.593 421.029 136.543 424.75 132.805 426.637C131.706 427.193 130.542 427.543 129.377 427.734C128.647 427.853 128.046 427.892 127.631 427.888L127.607 427.888C126.779 427.871 126.121 427.186 126.137 426.358Z" fill="#482D1F"/>
<path d="M108.049 291.041C90.9774 302.938 71.8438 302.427 62.126 293.409C54.7331 286.492 53.3578 275.189 53.1648 273.588C51.2104 257.483 64.4561 252.325 65.5721 251.841C65.5721 251.841 81.9038 237.566 109.198 261.885C109.284 261.962 109.37 262.039 109.456 262.117C111.074 259.304 113.365 256.976 115.945 255.05C123.176 249.743 129.481 250.644 144.981 247.501C148.134 246.921 153.012 245.554 158.785 243.909C159.27 243.788 159.658 243.691 160.046 243.594C163.515 242.626 182.119 238.139 194.772 250.443C194.748 250.75 183.93 288.608 155.168 293.203H155.168L150.172 284.443C148.718 282.332 146.755 280.657 144.5 279.467C142.754 278.666 141.008 278.276 139.189 278.421C134.338 278.806 129.824 283.435 128.729 288.552C127.732 293.645 129.572 298.957 133.644 302.065C136.212 304.179 139.35 305.343 142.706 305.345C143.242 313.333 143.887 324.431 143.887 324.431C143.887 324.431 142.232 324.431 141.488 324.431C140.75 324.431 116.2 317.127 108.049 291.041ZM189.175 282.141C187.283 282.819 184.081 283.618 181.316 283.276C176.538 282.715 180.688 279.517 184.86 278.889C186.825 278.502 188.449 279.23 189.54 279.886C190.316 280.517 190.121 281.802 189.175 282.141ZM207.922 278.757C206.078 279.629 203.07 280.791 200.136 280.595C195.261 280.471 198.998 276.859 203.195 275.916C205.353 275.481 206.905 275.919 208.093 276.55C208.942 277.06 208.844 278.321 207.922 278.757Z" fill="#482D1F"/>
<path d="M200.822 291.854C199.828 290.762 199.854 287.973 199.928 286.202C199.929 284.966 201.021 283.972 202.136 283.9C202.864 283.924 203.761 284.216 204.1 285.575C205.117 288.825 202.227 293.771 200.822 291.854ZM184.318 293.849C183.228 292.781 183.351 289.968 183.425 288.197C183.425 286.96 184.517 285.966 185.633 285.894C186.361 285.919 187.258 286.211 187.597 287.569C188.613 290.82 185.821 295.742 184.318 293.849Z" fill="#482D1F"/>
<path d="M199.804 299.623L198.894 288.986L199.161 283.109C199.187 282.557 198.76 282.09 198.208 282.065C197.656 282.04 197.189 282.467 197.163 283.018L196.893 288.96L196.896 289.091L197.81 299.787C197.813 299.826 197.743 299.901 197.564 299.919L197.459 299.936C196.414 300.156 195.144 300.269 193.655 300.269C193.103 300.269 192.655 300.716 192.655 301.269C192.655 301.821 193.103 302.269 193.655 302.269C195.254 302.269 196.643 302.148 197.826 301.902C199.012 301.752 199.896 300.784 199.804 299.623Z" fill="#482D1F"/>
<path d="M114.022 265.526C114.022 265.526 116.367 277.412 109.517 294.579L126.256 288.138L125.971 278.315L114.022 265.526Z" fill="#482D1F"/>
<path d="M168.406 330.293L159.87 328.299L167.742 345.403L168.406 330.293Z" fill="#482D1F"/>
<path d="M193.052 310.311C192.324 310.287 190.53 310.116 190.045 309C189.997 308.806 189.827 308.539 189.876 308.321C190.046 307.763 193.272 307.474 193.272 307.474C197.322 307.185 198.366 306.822 198.705 307.356C198.874 307.623 198.874 308.035 198.194 309.029C197.49 310.751 194.192 310.336 193.052 310.311Z" fill="#482D1F"/>
</svg>
